<svg version="1.1" id="Layer_1" xmlns="http://www.w3.org/2000/svg" xmlns:xlink="http://www.w3.org/1999/xlink" x="0px" y="0px"
	 width="100%" viewBox="0 0 300 300" enable-background="new 0 0 300 300" xml:space="preserve">
<path fill="#000000" opacity="1.000000" stroke="none" 
	d="
M203.000000,301.000000 
	C135.333344,301.000000 68.166687,301.000000 1.000027,301.000000 
	C1.000018,201.000031 1.000018,101.000061 1.000009,1.000067 
	C100.999947,1.000045 200.999893,1.000045 300.999878,1.000022 
	C300.999939,100.999939 300.999939,200.999878 300.999969,300.999908 
	C268.500000,301.000000 236.000000,301.000000 203.000000,301.000000 
M167.987915,215.213120 
	C166.340378,213.442581 164.692856,211.672043 162.771805,209.279587 
	C162.144730,208.346970 161.726578,207.058777 160.853073,206.545532 
	C157.691772,204.688019 157.291443,198.987503 151.269653,200.262451 
	C149.103012,201.191742 146.784164,201.887344 144.838013,203.155106 
	C143.949036,203.734177 143.045013,206.077499 143.430710,206.532059 
	C145.709320,209.217331 148.365097,211.582565 151.168594,214.690445 
	C154.432678,218.495026 157.696762,222.299591 161.212265,226.714676 
	C162.792389,228.509293 164.372513,230.303909 166.213455,232.715103 
	C168.126602,234.510818 170.039734,236.306549 172.230881,238.741104 
	C173.869965,241.138809 174.944489,244.675201 179.792923,242.023666 
	C181.194077,241.627365 182.595215,241.231064 184.820328,240.971405 
	C185.879547,239.715286 187.594254,238.587433 187.870056,237.178009 
	C188.581009,233.544739 188.819183,229.792267 188.940720,226.077423 
	C189.076935,221.913834 190.392807,217.005386 183.753357,215.258865 
	C181.741730,213.817703 179.730103,212.376526 176.889175,210.341232 
	C176.889175,214.187195 176.889175,217.069916 176.278152,220.297180 
	C175.533600,221.163147 174.789047,222.029114 173.986282,222.208115 
	C172.005585,220.103745 170.024887,217.999374 167.987915,215.213120 
M203.265457,203.013489 
	C198.879547,200.326477 194.493637,197.639465 189.827042,194.336639 
	C187.606247,191.730576 185.047379,189.335693 183.253204,186.463165 
	C181.172592,183.132034 179.646027,181.649918 176.594116,185.534927 
	C175.309067,187.170746 172.764557,187.786163 171.360489,189.369171 
	C170.201111,190.676300 168.788010,193.347061 169.358063,194.345932 
	C173.587952,201.757523 178.830765,208.353714 187.201080,212.701202 
	C192.466690,214.745956 197.732300,216.790726 203.862717,218.978073 
	C209.908051,218.930344 215.953400,218.882614 222.732452,218.725784 
	C229.718826,216.182693 236.958679,214.100784 242.688919,207.814926 
	C255.000000,197.017792 261.373871,183.006180 262.815948,167.109467 
	C264.188660,151.978409 263.068756,136.851059 255.004669,123.273521 
	C252.414185,118.911942 249.054352,115.007301 245.983780,110.184494 
	C241.573715,104.408424 235.729614,100.659813 228.301910,97.814987 
	C226.222672,97.062538 224.184097,95.835098 222.056030,95.652870 
	C217.058716,95.224953 212.018600,95.296814 206.356354,94.851707 
	C201.717270,87.544258 197.752579,79.685722 189.746338,74.251099 
	C184.162857,70.889893 178.579361,67.528679 172.220779,64.009567 
	C165.494537,62.635735 158.768311,61.261898 151.549622,59.177624 
	C138.380310,58.377254 125.540298,60.123577 112.243179,64.039124 
	C106.494331,66.414955 100.745491,68.790787 94.306503,71.234978 
	C93.258270,71.946228 92.204803,72.649910 91.162697,73.370033 
	C86.091476,76.874374 81.023308,80.383125 75.247665,83.999382 
	C68.019806,88.809059 61.722359,94.570114 56.314262,102.180885 
	C54.231945,104.986885 51.892529,107.639915 50.115108,110.627312 
	C44.591751,119.910706 41.119835,129.750809 39.764561,140.695084 
	C37.375336,159.988831 42.071911,176.224838 57.267834,189.737747 
	C63.177689,192.769745 69.087540,195.801743 75.704811,199.191879 
	C81.802444,200.406052 87.900078,201.620224 94.848007,202.983551 
	C97.748268,203.322525 100.675964,204.096710 103.543449,203.915878 
	C111.040276,203.443085 118.510773,202.552750 126.777725,201.694427 
	C132.517166,200.075104 138.256622,198.455780 144.732956,196.968964 
	C146.314606,196.260162 148.025528,195.748520 149.456680,194.810165 
	C158.005371,189.205200 166.489578,183.501846 175.667648,177.781540 
	C178.489380,174.690460 181.639801,171.835968 184.068542,168.461990 
	C190.271866,159.844437 192.154922,150.308487 187.879776,140.346146 
	C185.004761,133.646500 180.511322,128.112305 172.615784,125.215424 
	C165.788513,123.941338 158.997757,121.948112 151.188278,124.031906 
	C139.810425,125.422798 131.651489,131.634979 126.076050,141.318924 
	C125.309395,142.650528 125.628769,146.045837 126.617043,146.691055 
	C130.182281,149.018723 134.248535,150.578995 138.355408,152.538757 
	C141.351944,146.028275 145.434891,141.526306 152.808365,139.665298 
	C159.643600,137.443649 165.689362,139.842621 171.936142,143.480606 
	C174.865585,147.787216 175.051285,152.288345 172.288025,157.268738 
	C164.908173,167.914276 154.266510,174.328522 142.209106,180.001892 
	C136.793900,181.963760 131.378693,183.925613 125.123413,185.992798 
	C124.165199,186.111862 123.194847,186.170288 122.250664,186.359406 
	C112.912842,188.229614 103.598503,190.419342 93.194321,188.004013 
	C87.477455,186.297943 81.760590,184.591873 75.722054,182.263596 
	C69.122894,178.877792 63.924160,173.952530 59.934914,166.991684 
	C56.036015,160.822754 53.728088,153.784317 54.306450,146.816788 
	C54.891037,139.774185 57.891098,132.932083 60.144363,125.351021 
	C66.134018,117.581543 72.123680,109.812065 78.753220,101.766884 
	C84.872505,97.193085 90.991791,92.619293 97.832626,87.994102 
	C103.220528,85.608543 108.608429,83.222977 114.732727,80.737984 
	C115.849167,80.160385 116.907135,79.383331 118.091148,79.036255 
	C129.158325,75.791992 140.489685,74.592201 152.714645,75.204430 
	C159.130737,77.175865 165.546814,79.147301 172.318100,81.750168 
	C177.346268,86.082642 182.374435,90.415123 187.851883,95.284683 
	C194.780029,105.679596 192.191391,114.730858 185.871033,124.681046 
	C185.095276,125.902351 184.037979,128.051239 184.543869,128.792618 
	C186.998322,132.389618 189.941345,135.653244 192.872940,139.232300 
	C199.548126,134.790665 203.390274,128.772705 205.037735,121.158234 
	C205.843826,117.432533 207.031998,113.789505 208.933578,110.021477 
	C215.938599,109.240341 221.961563,112.129402 228.295151,115.729767 
	C234.864365,120.846169 240.193588,126.948944 243.827896,135.358185 
	C250.833664,153.159027 248.632614,170.267624 239.329010,187.185730 
	C238.011368,188.831497 236.926620,190.761108 235.332123,192.069504 
	C230.663300,195.900604 225.791443,199.484283 220.152191,203.031555 
	C214.767410,203.076004 209.382629,203.120453 203.265457,203.013489 
z"/>
<path fill="#B1609C" opacity="1.000000" stroke="none" 
	d="
M246.046494,110.893616 
	C249.054352,115.007301 252.414185,118.911942 255.004669,123.273521 
	C263.068756,136.851059 264.188660,151.978409 262.815948,167.109467 
	C261.373871,183.006180 255.000000,197.017792 242.204697,207.570465 
	C241.480316,204.894211 241.212204,202.464783 241.006165,200.030121 
	C240.635605,195.651459 240.302277,191.269653 239.953415,186.889160 
	C248.632614,170.267624 250.833664,153.159027 243.873352,134.628647 
	C244.278809,130.978378 244.721222,128.064911 244.980057,125.135246 
	C245.398956,120.393639 245.697250,115.641380 246.046494,110.893616 
z"/>
<path fill="#EB8790" opacity="1.000000" stroke="none" 
	d="
M59.833023,126.002144 
	C57.891098,132.932083 54.891037,139.774185 54.306450,146.816788 
	C53.728088,153.784317 56.036015,160.822754 59.534996,167.682236 
	C58.756817,170.409958 58.219841,172.432617 58.032032,174.487198 
	C57.586956,179.356186 57.307568,184.240326 56.961208,189.118332 
	C42.071911,176.224838 37.375336,159.988831 39.764561,140.695084 
	C41.119835,129.750809 44.591751,119.910706 50.115108,110.627312 
	C51.892529,107.639915 54.231945,104.986885 56.797176,102.427856 
	C57.520367,108.726509 57.641254,114.786781 58.075340,120.824539 
	C58.201797,122.583435 59.222324,124.278061 59.833023,126.002144 
z"/>
<path fill="#C16B99" opacity="1.000000" stroke="none" 
	d="
M208.047226,110.109055 
	C207.031998,113.789505 205.843826,117.432533 205.037735,121.158234 
	C203.390274,128.772705 199.548126,134.790665 192.872940,139.232300 
	C189.941345,135.653244 186.998322,132.389618 184.543869,128.792618 
	C184.037979,128.051239 185.095276,125.902351 185.871033,124.681046 
	C192.191391,114.730858 194.780029,105.679596 187.877350,94.599869 
	C188.268524,91.161667 188.682434,88.413612 188.987976,85.653572 
	C189.384720,82.069824 189.695267,78.476524 190.042908,74.887337 
	C197.752579,79.685722 201.717270,87.544258 206.677063,95.462067 
	C207.347580,100.751297 207.697403,105.430176 208.047226,110.109055 
z"/>
<path fill="#D37795" opacity="1.000000" stroke="none" 
	d="
M151.994507,74.831116 
	C140.489685,74.592201 129.158325,75.791992 118.091148,79.036255 
	C116.907135,79.383331 115.849167,80.160385 114.275452,80.390800 
	C113.544357,74.749901 113.270531,69.456192 112.996704,64.162476 
	C125.540298,60.123577 138.380310,58.377254 151.786469,60.005253 
	C152.013718,65.498962 152.004105,70.165039 151.994507,74.831116 
z"/>
<path fill="#C66E98" opacity="1.000000" stroke="none" 
	d="
M173.041901,125.886101 
	C180.511322,128.112305 185.004761,133.646500 187.879776,140.346146 
	C192.154922,150.308487 190.271866,159.844437 184.068542,168.461990 
	C181.639801,171.835968 178.489380,174.690460 175.332275,177.373657 
	C174.295090,170.295761 173.593262,163.625763 172.891418,156.955750 
	C175.051285,152.288345 174.865585,147.787216 171.856781,142.660004 
	C172.198914,136.521637 172.620407,131.203873 173.041901,125.886101 
z"/>
<path fill="#CB7197" opacity="1.000000" stroke="none" 
	d="
M172.589722,157.112244 
	C173.593262,163.625763 174.295090,170.295761 174.996155,177.398636 
	C166.489578,183.501846 158.005371,189.205200 149.456680,194.810165 
	C148.025528,195.748520 146.314606,196.260162 144.355316,196.487152 
	C143.637955,190.629700 143.298218,185.254059 142.958496,179.878403 
	C154.266510,174.328522 164.908173,167.914276 172.589722,157.112244 
z"/>
<path fill="#DB7D93" opacity="1.000000" stroke="none" 
	d="
M93.997765,188.165588 
	C103.598503,190.419342 112.912842,188.229614 122.250664,186.359406 
	C123.194847,186.170288 124.165199,186.111862 125.550636,186.413528 
	C125.982491,191.832474 125.987129,196.830673 125.991768,201.828888 
	C118.510773,202.552750 111.040276,203.443085 103.543449,203.915878 
	C100.675964,204.096710 97.748268,203.322525 94.423477,202.454224 
	C93.998550,197.338455 93.998154,192.752014 93.997765,188.165588 
z"/>
<path fill="#E68491" opacity="1.000000" stroke="none" 
	d="
M59.988693,125.676582 
	C59.222324,124.278061 58.201797,122.583435 58.075340,120.824539 
	C57.641254,114.786781 57.520367,108.726509 57.115913,102.283592 
	C61.722359,94.570114 68.019806,88.809059 75.764297,84.336006 
	C76.520615,87.102341 76.745667,89.533615 77.003502,91.961395 
	C77.360527,95.323166 77.742210,98.682312 78.113335,102.042587 
	C72.123680,109.812065 66.134018,117.581543 59.988693,125.676582 
z"/>
<path fill="#D37795" opacity="1.000000" stroke="none" 
	d="
M151.992691,139.831589 
	C145.434891,141.526306 141.351944,146.028275 138.355408,152.538757 
	C134.248535,150.578995 130.182281,149.018723 126.617043,146.691055 
	C125.628769,146.045837 125.309395,142.650528 126.076050,141.318924 
	C131.651489,131.634979 139.810425,125.422798 151.591980,124.555855 
	C151.994675,129.997070 151.993683,134.914322 151.992691,139.831589 
z"/>
<path fill="#B7649B" opacity="1.000000" stroke="none" 
	d="
M246.015137,110.539055 
	C245.697250,115.641380 245.398956,120.393639 244.980057,125.135246 
	C244.721222,128.064911 244.278809,130.978378 243.664703,134.315491 
	C240.193588,126.948944 234.864365,120.846169 228.135895,114.948257 
	C228.316422,108.834114 228.656189,103.501488 228.995941,98.168854 
	C235.729614,100.659813 241.573715,104.408424 246.015137,110.539055 
z"/>
<path fill="#B7649B" opacity="1.000000" stroke="none" 
	d="
M239.641205,187.037445 
	C240.302277,191.269653 240.635605,195.651459 241.006165,200.030121 
	C241.212204,202.464783 241.480316,204.894211 241.884796,207.717178 
	C236.958679,214.100784 229.718826,216.182693 222.365997,218.326935 
	C221.666077,213.007019 221.332611,208.085968 220.999146,203.164917 
	C225.791443,199.484283 230.663300,195.900604 235.332123,192.069504 
	C236.926620,190.761108 238.011368,188.831497 239.641205,187.037445 
z"/>
<path fill="#E18092" opacity="1.000000" stroke="none" 
	d="
M78.433273,101.904739 
	C77.742210,98.682312 77.360527,95.323166 77.003502,91.961395 
	C76.745667,89.533615 76.520615,87.102341 76.117500,84.281479 
	C81.023308,80.383125 86.091476,76.874374 91.162697,73.370033 
	C92.204803,72.649910 93.258270,71.946228 94.742996,71.597176 
	C95.452576,73.919983 95.760490,75.876511 95.991066,77.842110 
	C96.389694,81.240273 96.740318,84.644066 97.111084,88.045502 
	C90.991791,92.619293 84.872505,97.193085 78.433273,101.904739 
z"/>
<path fill="#E68491" opacity="1.000000" stroke="none" 
	d="
M57.114521,189.428040 
	C57.307568,184.240326 57.586956,179.356186 58.032032,174.487198 
	C58.219841,172.432617 58.756817,170.409958 59.484100,168.091187 
	C63.924160,173.952530 69.122894,178.877792 75.873596,183.044693 
	C75.682556,188.828445 75.339966,193.831085 74.997391,198.833740 
	C69.087540,195.801743 63.177689,192.769745 57.114521,189.428040 
z"/>
<path fill="#C66E98" opacity="1.000000" stroke="none" 
	d="
M186.893280,212.049469 
	C178.830765,208.353714 173.587952,201.757523 169.358063,194.345932 
	C168.788010,193.347061 170.201111,190.676300 171.360489,189.369171 
	C172.764557,187.786163 175.309067,187.170746 176.594116,185.534927 
	C179.646027,181.649918 181.172592,183.132034 183.253204,186.463165 
	C185.047379,189.335693 187.606247,191.730576 189.718903,194.940857 
	C189.073883,198.532806 188.506119,201.515411 188.009705,204.509842 
	C187.594269,207.015869 187.262238,209.535736 186.893280,212.049469 
z"/>
<path fill="#CB7197" opacity="1.000000" stroke="none" 
	d="
M152.354568,75.017776 
	C152.004105,70.165039 152.013718,65.498962 152.032700,60.360474 
	C158.768311,61.261898 165.494537,62.635735 172.609222,64.541466 
	C172.652740,70.421822 172.307831,75.770279 171.962906,81.118736 
	C165.546814,79.147301 159.130737,77.175865 152.354568,75.017776 
z"/>
<path fill="#BB679A" opacity="1.000000" stroke="none" 
	d="
M228.648926,97.991920 
	C228.656189,103.501488 228.316422,108.834114 227.968018,114.639542 
	C221.961563,112.129402 215.938599,109.240341 208.490402,110.065262 
	C207.697403,105.430176 207.347580,100.751297 206.996796,95.619415 
	C212.018600,95.296814 217.058716,95.224953 222.056030,95.652870 
	C224.184097,95.835098 226.222672,97.062538 228.648926,97.991920 
z"/>
<path fill="#CB7197" opacity="1.000000" stroke="none" 
	d="
M152.400528,139.748444 
	C151.993683,134.914322 151.994675,129.997070 151.994385,124.624252 
	C158.997757,121.948112 165.788513,123.941338 172.828842,125.550766 
	C172.620407,131.203873 172.198914,136.521637 171.701660,142.359970 
	C165.689362,139.842621 159.643600,137.443649 152.400528,139.748444 
z"/>
<path fill="#C66E98" opacity="1.000000" stroke="none" 
	d="
M172.140503,81.434448 
	C172.307831,75.770279 172.652740,70.421822 172.996765,64.620415 
	C178.579361,67.528679 184.162857,70.889893 189.894623,74.569214 
	C189.695267,78.476524 189.384720,82.069824 188.987976,85.653572 
	C188.682434,88.413612 188.268524,91.161667 187.652710,94.331329 
	C182.374435,90.415123 177.346268,86.082642 172.140503,81.434448 
z"/>
<path fill="#DB7D93" opacity="1.000000" stroke="none" 
	d="
M97.471855,88.019806 
	C96.740318,84.644066 96.389694,81.240273 95.991066,77.842110 
	C95.760490,75.876511 95.452576,73.919983 95.088058,71.562996 
	C100.745491,68.790787 106.494331,66.414955 112.619949,64.100800 
	C113.270531,69.456192 113.544357,74.749901 113.907257,80.440514 
	C108.608429,83.222977 103.220528,85.608543 97.471855,88.019806 
z"/>
<path fill="#D37795" opacity="1.000000" stroke="none" 
	d="
M126.384750,201.761658 
	C125.987129,196.830673 125.982491,191.832474 125.970673,186.360870 
	C131.378693,183.925613 136.793900,181.963760 142.583801,179.940155 
	C143.298218,185.254059 143.637955,190.629700 143.986877,196.420898 
	C138.256622,198.455780 132.517166,200.075104 126.384750,201.761658 
z"/>
<path fill="#E18092" opacity="1.000000" stroke="none" 
	d="
M75.351097,199.012817 
	C75.339966,193.831085 75.682556,188.828445 76.034439,183.355804 
	C81.760590,184.591873 87.477455,186.297943 93.596039,188.084808 
	C93.998154,192.752014 93.998550,197.338455 93.998329,202.379639 
	C87.900078,201.620224 81.802444,200.406052 75.351097,199.012817 
z"/>
<path fill="#BB679A" opacity="1.000000" stroke="none" 
	d="
M220.575668,203.098236 
	C221.332611,208.085968 221.666077,213.007019 221.999146,218.381470 
	C215.953400,218.882614 209.908051,218.930344 203.465546,218.499039 
	C203.378204,213.068314 203.688019,208.116608 203.997833,203.164917 
	C209.382629,203.120453 214.767410,203.076004 220.575668,203.098236 
z"/>
<path fill="#C16B99" opacity="1.000000" stroke="none" 
	d="
M203.631653,203.089203 
	C203.688019,208.116608 203.378204,213.068314 203.033142,218.427734 
	C197.732300,216.790726 192.466690,214.745956 187.047180,212.375336 
	C187.262238,209.535736 187.594269,207.015869 188.009705,204.509842 
	C188.506119,201.515411 189.073883,198.532806 189.859222,195.248779 
	C194.493637,197.639465 198.879547,200.326477 203.631653,203.089203 
z"/>
<path fill="#DB7D93" opacity="1.000000" stroke="none" 
	d="
M151.994995,200.164612 
	C157.291443,198.987503 157.691772,204.688019 160.853073,206.545532 
	C161.726578,207.058777 162.144730,208.346970 162.743958,209.978882 
	C162.131027,215.820160 161.545929,220.962173 160.960846,226.104172 
	C157.696762,222.299591 154.432678,218.495026 151.271042,214.033035 
	C151.580658,208.971954 151.787827,204.568283 151.994995,200.164612 
z"/>
<path fill="#B7649B" opacity="1.000000" stroke="none" 
	d="
M183.996368,240.834763 
	C182.595215,241.231064 181.194077,241.627365 179.407745,241.596344 
	C178.311447,234.096909 177.600311,227.024780 176.889191,219.952652 
	C176.889175,217.069916 176.889175,214.187195 176.889175,210.341232 
	C179.730103,212.376526 181.741730,213.817703 183.889954,216.047119 
	C184.016495,224.835175 184.006439,232.834961 183.996368,240.834763 
z"/>
<path fill="#C16B99" opacity="1.000000" stroke="none" 
	d="
M176.583679,220.124908 
	C177.600311,227.024780 178.311447,234.096909 179.031555,241.643143 
	C174.944489,244.675201 173.869965,241.138809 172.254578,238.033569 
	C172.867020,232.515701 173.455765,227.705399 174.044495,222.895081 
	C174.789047,222.029114 175.533600,221.163147 176.583679,220.124908 
z"/>
<path fill="#CB7197" opacity="1.000000" stroke="none" 
	d="
M174.015381,222.551605 
	C173.455765,227.705399 172.867020,232.515701 172.115585,237.714142 
	C170.039734,236.306549 168.126602,234.510818 166.246155,232.018112 
	C166.867310,226.179077 167.455750,221.037048 168.044189,215.895004 
	C170.024887,217.999374 172.005585,220.103745 174.015381,222.551605 
z"/>
<path fill="#B1609C" opacity="1.000000" stroke="none" 
	d="
M184.408356,240.903076 
	C184.006439,232.834961 184.016495,224.835175 184.036530,216.359344 
	C190.392807,217.005386 189.076935,221.913834 188.940720,226.077423 
	C188.819183,229.792267 188.581009,233.544739 187.870056,237.178009 
	C187.594254,238.587433 185.879547,239.715286 184.408356,240.903076 
z"/>
<path fill="#D37795" opacity="1.000000" stroke="none" 
	d="
M168.016052,215.554062 
	C167.455750,221.037048 166.867310,226.179077 166.115753,231.709824 
	C164.372513,230.303909 162.792389,228.509293 161.086548,226.409424 
	C161.545929,220.962173 162.131027,215.820160 162.880722,210.289825 
	C164.692856,211.672043 166.340378,213.442581 168.016052,215.554062 
z"/>
<path fill="#E68491" opacity="1.000000" stroke="none" 
	d="
M151.632324,200.213531 
	C151.787827,204.568283 151.580658,208.971954 151.133713,213.715576 
	C148.365097,211.582565 145.709320,209.217331 143.430710,206.532059 
	C143.045013,206.077499 143.949036,203.734177 144.838013,203.155106 
	C146.784164,201.887344 149.103012,201.191742 151.632324,200.213531 
z"/>
</svg>