<?xml version="1.0" encoding="UTF-8"?>
<svg viewBox="0 0 100 100" xmlns="http://www.w3.org/2000/svg">
  <defs>
    <linearGradient id="gradient" x1="0%" y1="0%" x2="100%" y2="100%">
      <stop offset="0%" style="stop-color:#9b59b6;stop-opacity:1" />
      <stop offset="100%" style="stop-color:#7c4dff;stop-opacity:1" />
    </linearGradient>
  </defs>
  <rect width="100" height="100" rx="20" fill="url(#gradient)" opacity="0.1"/>
  <g transform="translate(20,20) scale(0.6)">
    <path d="M30 15 C45 15, 60 25, 60 45 C60 65, 45 75, 30 75 C15 75, 0 65, 0 45 C0 25, 15 15, 30 15 Z M75 30 C85 30, 95 35, 95 50 C95 65, 85 70, 75 70 C65 70, 55 65, 55 50 C55 35, 65 30, 75 30 Z" fill="url(#gradient)" stroke="url(#gradient)" stroke-width="8" fill="none"/>
    <path d="M45 85 L35 95 L45 95 Z" fill="url(#gradient)"/>
  </g>
</svg>